<svg width="24" height="19" viewBox="0 0 24 19" fill="none" xmlns="http://www.w3.org/2000/svg">
<g filter="url(#filter0_i_337_3)">
<path d="M20.3175 1.51636C18.7615 0.802297 17.1195 0.293049 15.4325 0.00136465C15.4171 -0.0016324 15.4011 0.000335898 15.3869 0.00698584C15.3728 0.0136358 15.361 0.0246236 15.3535 0.0383646C15.2041 0.305188 15.0425 0.629726 14.9026 0.933811C14.8072 1.14119 14.5878 1.26371 14.3614 1.23428C12.7946 1.03058 11.2081 1.03063 9.64132 1.23445C9.41554 1.26382 9.1968 1.14184 9.10093 0.935323C8.95945 0.630555 8.80619 0.331342 8.64148 0.0383646C8.63331 0.0252133 8.62149 0.0147171 8.60747 0.00814932C8.59344 0.00158159 8.57782 -0.000775302 8.56248 0.00136465C6.87523 0.291946 5.23306 0.801237 3.67748 1.51636C3.66503 1.52301 3.65412 1.53221 3.64548 1.54336C0.533481 6.19236 -0.319519 10.7264 0.0994806 15.2034C0.10038 15.2145 0.103603 15.2253 0.108942 15.2351C0.114282 15.245 0.121619 15.2536 0.130481 15.2604C1.94208 16.6026 3.96859 17.6272 6.12348 18.2904C6.13868 18.2945 6.15476 18.294 6.16971 18.289C6.18465 18.2841 6.19779 18.2748 6.20748 18.2624C6.67109 17.6331 7.08119 16.9661 7.43348 16.2684C7.4384 16.2588 7.44123 16.2483 7.44181 16.2376C7.44238 16.2269 7.44067 16.2162 7.4368 16.2062C7.43292 16.1961 7.42697 16.1871 7.41933 16.1795C7.41169 16.172 7.40254 16.1661 7.39248 16.1624C6.74572 15.9154 6.11973 15.6171 5.52048 15.2704C5.50949 15.264 5.50024 15.255 5.49356 15.2442C5.48688 15.2335 5.48297 15.2212 5.48217 15.2085C5.48138 15.1958 5.48373 15.1832 5.48902 15.1716C5.49431 15.1601 5.50237 15.15 5.51248 15.1424C5.63877 15.048 5.7628 14.9506 5.88448 14.8504C5.8949 14.8413 5.90776 14.8355 5.92147 14.8337C5.93517 14.8319 5.94909 14.8342 5.96148 14.8404C9.88948 16.6334 14.1415 16.6334 18.0235 14.8404C18.036 14.834 18.0501 14.8316 18.064 14.8334C18.0779 14.8352 18.091 14.8411 18.1015 14.8504C18.2221 14.9497 18.3465 15.047 18.4745 15.1424C18.4845 15.1499 18.4925 15.1598 18.4978 15.1711C18.5031 15.1825 18.5056 15.1949 18.505 15.2074C18.5044 15.22 18.5008 15.2321 18.4944 15.2429C18.488 15.2537 18.4791 15.2628 18.4685 15.2694C17.8704 15.6189 17.2438 15.9173 16.5955 16.1614C16.5854 16.1652 16.5762 16.1712 16.5686 16.1788C16.5609 16.1865 16.555 16.1956 16.5511 16.2057C16.5472 16.2158 16.5455 16.2266 16.5461 16.2374C16.5467 16.2482 16.5496 16.2587 16.5545 16.2684C16.9145 16.9664 17.3265 17.6304 17.7795 18.2614C17.7892 18.2738 17.8023 18.2831 17.8173 18.288C17.8322 18.293 17.8483 18.2935 17.8635 18.2894C20.0223 17.6289 22.0522 16.6041 23.8655 15.2594C23.8742 15.253 23.8815 15.2449 23.887 15.2356C23.8925 15.2264 23.8961 15.2161 23.8975 15.2054C24.3961 10.043 23.067 5.55686 20.3715 1.57926C20.3562 1.55674 20.3445 1.52893 20.3198 1.51741C20.319 1.51705 20.3183 1.5167 20.3175 1.51636ZM8.02048 12.4764C6.83848 12.4764 5.86348 11.3914 5.86348 10.0574C5.86348 8.72436 6.81948 7.63836 8.02048 7.63836C9.23048 7.63836 10.1965 8.73436 10.1775 10.0584C10.1775 11.3914 9.22148 12.4764 8.02048 12.4764ZM15.9955 12.4764C14.8125 12.4764 13.8385 11.3914 13.8385 10.0574C13.8385 8.72436 14.7935 7.63836 15.9955 7.63836C17.2055 7.63836 18.1715 8.73436 18.1525 10.0584C18.1525 11.3914 17.2065 12.4764 15.9955 12.4764Z" fill="#D8D8D8"/>
</g>
<defs>
<filter id="filter0_i_337_3" x="0" y="0" width="24.0007" height="22.2932" filterUnits="userSpaceOnUse" color-interpolation-filters="sRGB">
<feFlood flood-opacity="0" result="BackgroundImageFix"/>
<feBlend mode="normal" in="SourceGraphic" in2="BackgroundImageFix" result="shape"/>
<feColorMatrix in="SourceAlpha" type="matrix" values="0 0 0 0 0 0 0 0 0 0 0 0 0 0 0 0 0 0 127 0" result="hardAlpha"/>
<feOffset dy="4"/>
<feGaussianBlur stdDeviation="2"/>
<feComposite in2="hardAlpha" operator="arithmetic" k2="-1" k3="1"/>
<feColorMatrix type="matrix" values="0 0 0 0 0 0 0 0 0 0 0 0 0 0 0 0 0 0 0.25 0"/>
<feBlend mode="normal" in2="shape" result="effect1_innerShadow_337_3"/>
</filter>
</defs>
</svg>
