<svg width="21" height="19" viewBox="0 0 21 19" fill="none" xmlns="http://www.w3.org/2000/svg">
<g filter="url(#filter0_i_354_200)">
<path d="M10.0588 0C4.50132 0 0 4.35878 0 9.74029C0 14.0504 2.87934 17.6908 6.87772 18.9814C7.38066 19.0666 7.56926 18.7744 7.56926 18.5187C7.56926 18.2874 7.55669 17.5203 7.55669 16.7046C5.02941 17.1551 4.37559 16.108 4.17441 15.5601C4.06125 15.2801 3.57088 14.4156 3.14338 14.1843C2.79132 14.0017 2.28838 13.5512 3.13081 13.539C3.92294 13.5268 4.48875 14.2452 4.67735 14.5374C5.58265 16.0106 7.0286 15.5966 7.60699 15.341C7.695 14.7078 7.95904 14.2817 8.24824 14.0382C6.01015 13.7947 3.67147 12.9546 3.67147 9.22893C3.67147 8.16967 4.06125 7.29304 4.7025 6.61122C4.60191 6.36772 4.24985 5.36934 4.80309 4.03005C4.80309 4.03005 5.64551 3.77436 7.56926 5.02843C8.37397 4.80927 9.22897 4.69969 10.084 4.69969C10.939 4.69969 11.794 4.80927 12.5987 5.02843C14.5224 3.76219 15.3649 4.03005 15.3649 4.03005C15.9181 5.36934 15.566 6.36772 15.4654 6.61122C16.1067 7.29304 16.4965 8.15749 16.4965 9.22893C16.4965 12.9668 14.1452 13.7947 11.9071 14.0382C12.2718 14.3426 12.5861 14.927 12.5861 15.8401C12.5861 17.1429 12.5735 18.19 12.5735 18.5187C12.5735 18.7744 12.7621 19.0788 13.2651 18.9814C15.2622 18.3291 16.9977 17.0865 18.2271 15.4287C19.4564 13.7708 20.1177 11.7813 20.1176 9.74029C20.1176 4.35878 15.6163 0 10.0588 0Z" fill="#D8D8D8"/>
</g>
<defs>
<filter id="filter0_i_354_200" x="0" y="0" width="20.1177" height="20" filterUnits="userSpaceOnUse" color-interpolation-filters="sRGB">
<feFlood flood-opacity="0" result="BackgroundImageFix"/>
<feBlend mode="normal" in="SourceGraphic" in2="BackgroundImageFix" result="shape"/>
<feColorMatrix in="SourceAlpha" type="matrix" values="0 0 0 0 0 0 0 0 0 0 0 0 0 0 0 0 0 0 127 0" result="hardAlpha"/>
<feOffset dy="1"/>
<feGaussianBlur stdDeviation="0.5"/>
<feComposite in2="hardAlpha" operator="arithmetic" k2="-1" k3="1"/>
<feColorMatrix type="matrix" values="0 0 0 0 0 0 0 0 0 0 0 0 0 0 0 0 0 0 0.25 0"/>
<feBlend mode="normal" in2="shape" result="effect1_innerShadow_354_200"/>
</filter>
</defs>
</svg>
