<svg width="29" height="16" viewBox="0 0 29 16" fill="none" xmlns="http://www.w3.org/2000/svg">
<g filter="url(#filter0_i_401_39)">
<path d="M2.89289 15.4746C2.08508 15.1653 1.37852 14.6691 0.842231 14.0343C0.349236 13.4456 0.0562745 12.7367 0 11.9961H3.84993C3.86943 12.1909 3.93452 12.3795 4.04063 12.5492C4.14682 12.719 4.29156 12.8656 4.46514 12.9793C4.85504 13.2399 5.32807 13.3746 5.81025 13.3624C6.20674 13.3844 6.60086 13.2928 6.93812 13.1003C7.06033 13.0277 7.16076 12.9282 7.23034 12.8108C7.29982 12.6934 7.33617 12.562 7.33608 12.4283C7.33672 12.2656 7.28243 12.1067 7.18054 11.9735C7.07864 11.8403 6.93427 11.7394 6.7672 11.6847C6.16875 11.4615 5.55153 11.2833 4.92159 11.1516C4.14792 10.9942 3.38698 10.7883 2.64388 10.5356C2.03527 10.3196 1.49488 9.96782 1.07174 9.51197C0.62984 9.04386 0.410134 8.41448 0.410134 7.61928C0.404037 6.96722 0.614359 6.32902 1.01314 5.78926C1.45861 5.20825 2.075 4.75535 2.79036 4.48345C3.67416 4.14478 4.62571 3.98065 5.58321 4.00182C7.17816 4.00182 8.43465 4.36468 9.35251 5.09041C10.2764 5.82151 10.8462 6.85912 10.9369 7.97543H7.33608C7.31365 7.78753 7.25075 7.60559 7.15106 7.44029C7.05127 7.2749 6.9167 7.12942 6.75502 7.01224C6.38261 6.76336 5.92871 6.63854 5.4685 6.65837C5.10075 6.63703 4.73484 6.72069 4.42119 6.89801C4.30465 6.97067 4.21008 7.06911 4.14609 7.18418C4.08201 7.29934 4.0507 7.42735 4.055 7.55654C4.05628 7.72142 4.11277 7.88203 4.21658 8.01659C4.32049 8.15115 4.46688 8.25329 4.63596 8.30915C5.21967 8.53233 5.82664 8.70048 6.44742 8.81094C7.22832 8.98834 7.99705 9.20824 8.74957 9.46947C9.35571 9.69458 9.89163 10.0539 10.3096 10.5155C10.7809 11.0631 11.0249 11.7466 10.998 12.444C11.0069 13.0998 10.787 13.741 10.3705 14.2741C9.91013 14.8401 9.28714 15.2775 8.57133 15.5374C7.70739 15.8587 6.78139 16.0157 5.84934 15.9988C4.83481 16.0145 3.82796 15.8361 2.89289 15.4746Z" fill="#D8D8D8"/>
<path d="M24.8208 15.7552L23.4548 14.3684C22.0955 15.4564 20.4714 15.9997 18.5825 15.9981C17.5672 16.022 16.5582 15.8227 15.6209 15.4132C14.8336 15.0722 14.158 14.4986 13.6765 13.7622C13.2154 13.0204 12.9801 12.1495 13.0013 11.2645C12.9914 10.3294 13.251 9.41284 13.7462 8.63479C14.3106 7.79112 15.0841 7.12487 15.9832 6.70785C15.6556 6.3041 15.3933 5.84675 15.2068 5.35411C15.0512 4.90039 14.9749 4.42102 14.9817 3.939C14.975 3.23011 15.165 2.53441 15.5286 1.93661C15.9172 1.31537 16.4679 0.824153 17.1152 0.521495C17.893 0.157014 18.7389 -0.020318 19.5907 0.00258921C20.4404 -0.0247402 21.2838 0.16462 22.0483 0.554485C22.6794 0.879873 23.2052 1.3925 23.5606 2.02859C23.8971 2.64346 24.0579 3.3466 24.0242 4.05451H20.6484C20.6652 3.88965 20.6486 3.72302 20.5998 3.56532C20.5509 3.40762 20.4709 3.26248 20.3649 3.13946C20.2558 3.02819 20.1259 2.94196 19.9833 2.88633C19.8407 2.8307 19.6886 2.80682 19.5367 2.81628C19.2292 2.80593 18.9291 2.91605 18.695 3.12531C18.5864 3.22286 18.4999 3.34465 18.4418 3.48174C18.3838 3.61883 18.3557 3.76786 18.3597 3.91777C18.3699 4.26085 18.4678 4.59482 18.6433 4.88474C18.8981 5.31352 19.2003 5.70931 19.5435 6.06397L23.1442 9.74097C23.1782 9.65094 23.2165 9.56276 23.259 9.47679C23.3085 9.37304 23.3603 9.25506 23.4165 9.12301L24.1682 7.7362H27.769L26.7608 9.65129C26.3881 10.5073 25.9532 11.3322 25.46 12.1184L29 15.7552H24.8208ZM21.2493 12.1231L17.9726 8.80461C16.9644 9.34704 16.4603 10.0806 16.4603 11.0051C16.4567 11.272 16.5105 11.5362 16.6176 11.7784C16.7248 12.0205 16.8825 12.2342 17.0792 12.4037C17.5518 12.7981 18.1457 12.9978 18.749 12.965C19.6472 12.9788 20.5251 12.6849 21.2493 12.1277V12.1231Z" fill="#D8D8D8"/>
</g>
<defs>
<filter id="filter0_i_401_39" x="0" y="0" width="29" height="17" filterUnits="userSpaceOnUse" color-interpolation-filters="sRGB">
<feFlood flood-opacity="0" result="BackgroundImageFix"/>
<feBlend mode="normal" in="SourceGraphic" in2="BackgroundImageFix" result="shape"/>
<feColorMatrix in="SourceAlpha" type="matrix" values="0 0 0 0 0 0 0 0 0 0 0 0 0 0 0 0 0 0 127 0" result="hardAlpha"/>
<feOffset dy="1"/>
<feGaussianBlur stdDeviation="0.5"/>
<feComposite in2="hardAlpha" operator="arithmetic" k2="-1" k3="1"/>
<feColorMatrix type="matrix" values="0 0 0 0 0 0 0 0 0 0 0 0 0 0 0 0 0 0 0.25 0"/>
<feBlend mode="normal" in2="shape" result="effect1_innerShadow_401_39"/>
</filter>
</defs>
</svg>
