<svg width="23" height="20" viewBox="0 0 23 20" fill="none" xmlns="http://www.w3.org/2000/svg">
<g filter="url(#filter0_i_354_207)">
<path fill-rule="evenodd" clip-rule="evenodd" d="M11.5 0C9.61572 0 7.77576 0.139648 6.00476 0.299072C3.05542 0.567871 0.599731 2.88208 0.251221 5.84912C0.109741 7.07349 0 8.34009 0 9.63867C0.0098877 10.9065 0.09375 12.1724 0.251221 13.4302C0.601562 16.3972 3.05542 18.7131 6.00476 18.9768C7.77576 19.1396 9.61572 19.2776 11.5 19.2776C13.3843 19.2776 15.2242 19.1377 16.9934 18.9785C19.9446 18.7097 22.4003 16.3955 22.7469 13.4285C22.8903 12.2041 23 10.9375 23 9.63867C23 8.34009 22.8921 7.07349 22.7469 5.84912C22.4003 2.88208 19.9446 0.566162 16.9934 0.300781C15.2242 0.137939 13.3843 0 11.5 0ZM15.5 9.5C15.5 10.5803 12.4181 12.2661 10.2059 13.3376C9.18591 13.8313 8 13.1387 8 12.0803V6.91992C8 5.86011 9.18591 5.16895 10.2059 5.6626C12.4181 6.73413 15.5 8.42139 15.5 9.5Z" fill="#D8D8D8"/>
</g>
<defs>
<filter id="filter0_i_354_207" x="0" y="0" width="23" height="23.2776" filterUnits="userSpaceOnUse" color-interpolation-filters="sRGB">
<feFlood flood-opacity="0" result="BackgroundImageFix"/>
<feBlend mode="normal" in="SourceGraphic" in2="BackgroundImageFix" result="shape"/>
<feColorMatrix in="SourceAlpha" type="matrix" values="0 0 0 0 0 0 0 0 0 0 0 0 0 0 0 0 0 0 127 0" result="hardAlpha"/>
<feOffset dy="4"/>
<feGaussianBlur stdDeviation="2"/>
<feComposite in2="hardAlpha" operator="arithmetic" k2="-1" k3="1"/>
<feColorMatrix type="matrix" values="0 0 0 0 0 0 0 0 0 0 0 0 0 0 0 0 0 0 0.25 0"/>
<feBlend mode="normal" in2="shape" result="effect1_innerShadow_354_207"/>
</filter>
</defs>
</svg>
